<svg xmlns="http://www.w3.org/2000/svg" viewBox="0 0 800 460" font-family="sans-serif">
  <style>
    .state { fill: #fff; stroke: #333; stroke-width: 1.5; }
    .state-label { fill: #333; font-size: 13px; font-weight: 600; text-anchor: middle; }
    .edge { fill: #333; font-size: 11px; }
    .arrow { stroke: #333; stroke-width: 1.5; fill: none; marker-end: url(#arr); }
    .start { fill: #333; }
  </style>
  <defs>
    <marker id="arr" viewBox="0 0 10 10" refX="9" refY="5" markerWidth="6" markerHeight="6" orient="auto">
      <path d="M0,0 L10,5 L0,10 z" fill="#333"/>
    </marker>
  </defs>

  <text x="400" y="22" text-anchor="middle" fill="#333" font-size="16" font-weight="600">D-Card (Ascend NPU) 生命周期状态机</text>
  <text x="400" y="40" text-anchor="middle" fill="#666" font-size="11">v3.0 · CANN HAL · HCCS link 健康检查</text>

  <!-- Start -->
  <circle class="start" cx="100" cy="100" r="6"/>

  <!-- States -->
  <rect class="state" x="160" y="80" width="120" height="40" rx="20"/>
  <text class="state-label" x="220" y="105">DISCOVERED</text>

  <rect class="state" x="340" y="80" width="120" height="40" rx="20"/>
  <text class="state-label" x="400" y="105">ACTIVE</text>

  <rect class="state" x="340" y="180" width="120" height="40" rx="20"/>
  <text class="state-label" x="400" y="205">DEGRADED</text>

  <rect class="state" x="340" y="280" width="120" height="40" rx="20"/>
  <text class="state-label" x="400" y="305">FAILED</text>

  <rect class="state" x="160" y="180" width="120" height="40" rx="20"/>
  <text class="state-label" x="220" y="205">UNKNOWN</text>

  <rect class="state" x="520" y="280" width="160" height="40" rx="20"/>
  <text class="state-label" x="600" y="305">[*] (回收/物理更换)</text>

  <!-- Edges -->
  <line class="arrow" x1="106" y1="100" x2="155" y2="100"/>
  <text class="edge" x="125" y="93">boot</text>

  <line class="arrow" x1="280" y1="100" x2="335" y2="100"/>
  <text class="edge" x="290" y="93">HCCS link OK</text>

  <line class="arrow" x1="400" y1="120" x2="400" y2="175"/>
  <text class="edge" x="408" y="148">HCCS 告警</text>

  <line class="arrow" x1="400" y1="220" x2="400" y2="275"/>
  <text class="edge" x="408" y="248">链路失败</text>

  <line class="arrow" x1="280" y1="200" x2="335" y2="200"/>
  <text class="edge" x="285" y="193">探测丢失</text>

  <line class="arrow" x1="460" y1="300" x2="515" y2="300"/>
  <text class="edge" x="468" y="293">隔离</text>

  <line class="arrow" x1="340" y1="100" x2="285" y2="200" stroke-dasharray="3,2"/>
  <text class="edge" x="280" y="148">3 次失败</text>

  <line class="arrow" x1="340" y1="200" x2="285" y2="100" stroke-dasharray="3,2"/>
  <text class="edge" x="282" y="148">恢复</text>

  <line class="arrow" x1="280" y1="100" x2="155" y2="200" stroke-dasharray="3,2"/>
  <text class="edge" x="155" y="148">重启</text>

  <!-- Legend -->
  <rect x="30" y="350" width="740" height="90" fill="#fafafa" stroke="#ccc" rx="3"/>
  <text x="40" y="370" fill="#333" font-size="13" font-weight="600">说明</text>
  <text x="40" y="388" fill="#666" font-size="11">• 健康探针: D-Card Manager 1s 周期向 Ascend NPU 发 HCCS 心跳 (经 CANN HAL 8.0.RC2)</text>
  <text x="40" y="404" fill="#666" font-size="11">• 状态保留: ACTIVE / DEGRADED / FAILED / UNKNOWN (与 v1 一致, 语义向上兼容)</text>
  <text x="40" y="420" fill="#666" font-size="11">• 实线: HCCS link 状态确定流转 (探测 1 次即触发); 虚线: 3 次连续失败确认, 防抖动</text>
  <text x="40" y="434" fill="#666" font-size="11">• DEGRADED 触发条件: 单卡 HCCS 误码率 &gt; 阈值, 仍可服务但降级调度 (D3 流量编排感知)</text>
</svg>
