<svg xmlns="http://www.w3.org/2000/svg" viewBox="0 0 800 460" preserveAspectRatio="xMidYMid meet">
  <!-- Ch4 Vendor Ecosystem Map -->
  <rect x="0" y="0" width="800" height="460" fill="white"/>

  <text x="400" y="28" font-family="sans-serif" font-size="16" font-weight="700" fill="#1a1a1a" text-anchor="middle">51 厂商生态图 — 控制面 (DPU) / 数据面 (AI 卡) / 内存面 (CXL/PMem/QLC)</text>
  <text x="400" y="46" font-family="sans-serif" font-size="11" fill="#5a5a5a" text-anchor="middle">第四章 — 国际大厂 + 国产 19 家 + 独角兽 12 家 三阵营</text>

  <!-- Lane 1: DPU / 控制面 (top) -->
  <text x="20" y="80" font-family="sans-serif" font-size="11" fill="#3a4a6b" font-weight="700">控制面 (DPU)</text>
  <rect x="100" y="60" width="120" height="36" rx="4" fill="#3a4a6b" stroke="#3a4a6b"/>
  <text x="160" y="78" font-family="sans-serif" font-size="10" fill="#fff" text-anchor="middle" font-weight="700">NVIDIA</text>
  <text x="160" y="90" font-family="sans-serif" font-size="8" fill="#fff" text-anchor="middle">BlueField-3</text>

  <rect x="240" y="60" width="100" height="36" rx="4" fill="#555" stroke="#555"/>
  <text x="290" y="78" font-family="sans-serif" font-size="10" fill="#fff" text-anchor="middle">AMD</text>
  <text x="290" y="90" font-family="sans-serif" font-size="8" fill="#fff" text-anchor="middle">Pensando</text>

  <rect x="360" y="60" width="100" height="36" rx="4" fill="#555" stroke="#555"/>
  <text x="410" y="78" font-family="sans-serif" font-size="10" fill="#fff" text-anchor="middle">Intel</text>
  <text x="410" y="90" font-family="sans-serif" font-size="8" fill="#fff" text-anchor="middle">IPU E2100</text>

  <rect x="480" y="60" width="100" height="36" rx="4" fill="#aaa" stroke="#aaa"/>
  <text x="530" y="78" font-family="sans-serif" font-size="10" fill="#fff" text-anchor="middle">Broadcom</text>
  <text x="530" y="90" font-family="sans-serif" font-size="8" fill="#fff" text-anchor="middle">Stingray</text>

  <rect x="600" y="60" width="100" height="36" rx="4" fill="#aaa" stroke="#aaa"/>
  <text x="650" y="78" font-family="sans-serif" font-size="10" fill="#fff" text-anchor="middle">Marvell</text>
  <text x="650" y="90" font-family="sans-serif" font-size="8" fill="#fff" text-anchor="middle">OCTEON 10</text>

  <!-- 国产 DPU -->
  <rect x="240" y="105" width="80" height="22" rx="3" fill="white" stroke="#3a4a6b" stroke-width="1"/>
  <text x="280" y="119" font-family="sans-serif" font-size="9" fill="#1a1a1a" text-anchor="middle">中科驭数</text>

  <rect x="330" y="105" width="80" height="22" rx="3" fill="white" stroke="#3a4a6b" stroke-width="1"/>
  <text x="370" y="119" font-family="sans-serif" font-size="9" fill="#1a1a1a" text-anchor="middle">芯启源</text>

  <rect x="420" y="105" width="80" height="22" rx="3" fill="white" stroke="#3a4a6b" stroke-width="1"/>
  <text x="460" y="119" font-family="sans-serif" font-size="9" fill="#1a1a1a" text-anchor="middle">云豹智能</text>

  <rect x="510" y="105" width="80" height="22" rx="3" fill="white" stroke="#3a4a6b" stroke-width="1"/>
  <text x="550" y="119" font-family="sans-serif" font-size="9" fill="#1a1a1a" text-anchor="middle">益思芯</text>

  <!-- Lane 2: AI 卡 / 数据面 (middle) -->
  <text x="20" y="170" font-family="sans-serif" font-size="11" fill="#3a4a6b" font-weight="700">数据面 (AI 卡)</text>
  <rect x="100" y="150" width="120" height="36" rx="4" fill="#3a4a6b" stroke="#3a4a6b"/>
  <text x="160" y="168" font-family="sans-serif" font-size="10" fill="#fff" text-anchor="middle" font-weight="700">NVIDIA</text>
  <text x="160" y="180" font-family="sans-serif" font-size="8" fill="#fff" text-anchor="middle">H100/H200/B200</text>

  <rect x="240" y="150" width="100" height="36" rx="4" fill="#555" stroke="#555"/>
  <text x="290" y="168" font-family="sans-serif" font-size="10" fill="#fff" text-anchor="middle">AMD</text>
  <text x="290" y="180" font-family="sans-serif" font-size="8" fill="#fff" text-anchor="middle">MI300X/MI325X</text>

  <rect x="360" y="150" width="100" height="36" rx="4" fill="#aaa" stroke="#aaa"/>
  <text x="410" y="168" font-family="sans-serif" font-size="10" fill="#fff" text-anchor="middle">Intel</text>
  <text x="410" y="180" font-family="sans-serif" font-size="8" fill="#fff" text-anchor="middle">Gaudi 3</text>

  <rect x="480" y="150" width="120" height="36" rx="4" fill="#3a4a6b" stroke="#3a4a6b"/>
  <text x="540" y="168" font-family="sans-serif" font-size="10" fill="#fff" text-anchor="middle" font-weight="700">华为昇腾</text>
  <text x="540" y="180" font-family="sans-serif" font-size="8" fill="#fff" text-anchor="middle">910B / 910C</text>

  <rect x="620" y="150" width="80" height="36" rx="4" fill="white" stroke="#3a4a6b" stroke-width="1"/>
  <text x="660" y="168" font-family="sans-serif" font-size="9" fill="#1a1a1a" text-anchor="middle">海光</text>
  <text x="660" y="180" font-family="sans-serif" font-size="8" fill="#5a5a5a" text-anchor="middle">深算二号</text>

  <!-- 国产 AI 卡第二排 -->
  <rect x="240" y="195" width="60" height="22" rx="3" fill="white" stroke="#3a4a6b" stroke-width="1"/>
  <text x="270" y="209" font-family="sans-serif" font-size="8" fill="#1a1a1a" text-anchor="middle">寒武纪</text>

  <rect x="310" y="195" width="60" height="22" rx="3" fill="white" stroke="#3a4a6b" stroke-width="1"/>
  <text x="340" y="209" font-family="sans-serif" font-size="8" fill="#1a1a1a" text-anchor="middle">燧原</text>

  <rect x="380" y="195" width="60" height="22" rx="3" fill="white" stroke="#3a4a6b" stroke-width="1"/>
  <text x="410" y="209" font-family="sans-serif" font-size="8" fill="#1a1a1a" text-anchor="middle">摩尔</text>

  <rect x="450" y="195" width="60" height="22" rx="3" fill="white" stroke="#3a4a6b" stroke-width="1"/>
  <text x="480" y="209" font-family="sans-serif" font-size="8" fill="#1a1a1a" text-anchor="middle">壁仞</text>

  <!-- Lane 3: CXL/PMem/QLC / 内存面 (bottom) -->
  <text x="20" y="260" font-family="sans-serif" font-size="11" fill="#3a4a6b" font-weight="700">内存面 (CXL/PMem/QLC)</text>

  <rect x="100" y="240" width="100" height="36" rx="4" fill="#3a4a6b" stroke="#3a4a6b"/>
  <text x="150" y="258" font-family="sans-serif" font-size="10" fill="#fff" text-anchor="middle" font-weight="700">Samsung</text>
  <text x="150" y="270" font-family="sans-serif" font-size="8" fill="#fff" text-anchor="middle">CXL-MM</text>

  <rect x="220" y="240" width="100" height="36" rx="4" fill="#3a4a6b" stroke="#3a4a6b"/>
  <text x="270" y="258" font-family="sans-serif" font-size="10" fill="#fff" text-anchor="middle" font-weight="700">SK hynix</text>
  <text x="270" y="270" font-family="sans-serif" font-size="8" fill="#fff" text-anchor="middle">CXL 2.0</text>

  <rect x="340" y="240" width="100" height="36" rx="4" fill="#3a4a6b" stroke="#3a4a6b"/>
  <text x="390" y="258" font-family="sans-serif" font-size="10" fill="#fff" text-anchor="middle" font-weight="700">Micron</text>
  <text x="390" y="270" font-family="sans-serif" font-size="8" fill="#fff" text-anchor="middle">CZ120</text>

  <rect x="460" y="240" width="100" height="36" rx="4" fill="#555" stroke="#555"/>
  <text x="510" y="258" font-family="sans-serif" font-size="10" fill="#fff" text-anchor="middle">Kioxia</text>
  <text x="510" y="270" font-family="sans-serif" font-size="8" fill="#fff" text-anchor="middle">LC9 122TB</text>

  <rect x="580" y="240" width="100" height="36" rx="4" fill="#3a4a6b" stroke="#3a4a6b"/>
  <text x="630" y="258" font-family="sans-serif" font-size="10" fill="#fff" text-anchor="middle" font-weight="700">长江存储</text>
  <text x="630" y="270" font-family="sans-serif" font-size="8" fill="#fff" text-anchor="middle">X3-9070</text>

  <rect x="700" y="240" width="80" height="36" rx="4" fill="#aaa" stroke="#aaa"/>
  <text x="740" y="258" font-family="sans-serif" font-size="10" fill="#fff" text-anchor="middle">Seagate</text>
  <text x="740" y="270" font-family="sans-serif" font-size="8" fill="#fff" text-anchor="middle">HAMR</text>

  <!-- 独角兽 / Niche -->
  <text x="20" y="320" font-family="sans-serif" font-size="11" fill="#3a4a6b" font-weight="700">独角兽 / Niche</text>
  <rect x="100" y="305" width="100" height="22" rx="3" fill="white" stroke="#aaa" stroke-width="1"/>
  <text x="150" y="320" font-family="sans-serif" font-size="9" fill="#1a1a1a" text-anchor="middle">ScaleFlux CSD</text>

  <rect x="220" y="305" width="100" height="22" rx="3" fill="white" stroke="#aaa" stroke-width="1"/>
  <text x="270" y="320" font-family="sans-serif" font-size="9" fill="#1a1a1a" text-anchor="middle">Pliops XDP</text>

  <rect x="340" y="305" width="100" height="22" rx="3" fill="white" stroke="#aaa" stroke-width="1"/>
  <text x="390" y="320" font-family="sans-serif" font-size="9" fill="#1a1a1a" text-anchor="middle">Lightbits</text>

  <rect x="460" y="305" width="100" height="22" rx="3" fill="white" stroke="#aaa" stroke-width="1"/>
  <text x="510" y="320" font-family="sans-serif" font-size="9" fill="#1a1a1a" text-anchor="middle">Memverge</text>

  <rect x="580" y="305" width="100" height="22" rx="3" fill="white" stroke="#aaa" stroke-width="1"/>
  <text x="630" y="320" font-family="sans-serif" font-size="9" fill="#1a1a1a" text-anchor="middle">忆芯 STAR</text>

  <rect x="100" y="335" width="100" height="22" rx="3" fill="white" stroke="#aaa" stroke-width="1"/>
  <text x="150" y="350" font-family="sans-serif" font-size="9" fill="#1a1a1a" text-anchor="middle">联芸 MAP</text>

  <rect x="220" y="335" width="100" height="22" rx="3" fill="white" stroke="#aaa" stroke-width="1"/>
  <text x="270" y="350" font-family="sans-serif" font-size="9" fill="#1a1a1a" text-anchor="middle">中科闪芯</text>

  <rect x="340" y="335" width="100" height="22" rx="3" fill="white" stroke="#aaa" stroke-width="1"/>
  <text x="390" y="350" font-family="sans-serif" font-size="9" fill="#1a1a1a" text-anchor="middle">得瑞 DERA</text>

  <rect x="460" y="335" width="100" height="22" rx="3" fill="white" stroke="#aaa" stroke-width="1"/>
  <text x="510" y="350" font-family="sans-serif" font-size="9" fill="#1a1a1a" text-anchor="middle">浪潮 PSOAR</text>

  <!-- Bottom callout -->
  <rect x="100" y="385" width="600" height="50" rx="4" fill="#eef0f5" stroke="#3a4a6b" stroke-width="1"/>
  <text x="400" y="405" font-family="sans-serif" font-size="12" fill="#1a1a1a" text-anchor="middle" font-weight="700">三阵营: 国际大厂 (深蓝) / 国产 (浅边框) / 独角兽 (灰)</text>
  <text x="400" y="423" font-family="sans-serif" font-size="10" fill="#5a5a5a" text-anchor="middle">国际锁定生态 · 国产替代窗口 · 独角兽 niche 创新</text>
  <text x="400" y="453" font-family="sans-serif" font-size="10" fill="#5a5a5a" text-anchor="middle" font-style="italic">Source: vendors-intl.json (27) + vendors-cn.json (19) + vendors-cn-unicorn.json (5)</text>
</svg>