<svg xmlns="http://www.w3.org/2000/svg" viewBox="0 0 900 540" preserveAspectRatio="xMidYMid meet">
  <!-- Ch5 Roadmap: 21 milestones across 3 quarters -->
  <rect x="0" y="0" width="900" height="540" fill="white"/>

  <text x="450" y="28" font-family="sans-serif" font-size="16" font-weight="700" fill="#1a1a1a" text-anchor="middle">12-18 月里程碑路线图 (2026 Q3 - 2027 Q1) — 21 个事件</text>
  <text x="450" y="46" font-family="sans-serif" font-size="11" fill="#5a5a5a" text-anchor="middle">第五章 §5.4 — 国产 12 (57%) / 国际 4 / 标准 2 / 风险 3</text>

  <!-- Quarter 1: 2026 Q3 -->
  <text x="60" y="90" font-family="sans-serif" font-size="13" fill="#3a4a6b" font-weight="700">2026 Q3 (Jul-Sep) — 6 里程碑</text>
  <rect x="40" y="100" width="240" height="280" rx="6" fill="#f9f8f6" stroke="#ddd"/>

  <text x="60" y="125" font-family="sans-serif" font-size="10" fill="#5a5a5a">2026.07</text>
  <rect x="100" y="115" width="170" height="22" rx="3" fill="#3a4a6b"/>
  <text x="185" y="130" font-family="sans-serif" font-size="9" fill="#fff" text-anchor="middle">长江存储 PCIe 5.0 SSD</text>

  <text x="60" y="155" font-family="sans-serif" font-size="10" fill="#5a5a5a">2026.07</text>
  <rect x="100" y="145" width="170" height="22" rx="3" fill="#3a4a6b"/>
  <text x="185" y="160" font-family="sans-serif" font-size="9" fill="#fff" text-anchor="middle">CXL Memory Module 128GB</text>

  <text x="60" y="185" font-family="sans-serif" font-size="10" fill="#5a5a5a">2026.08</text>
  <rect x="100" y="175" width="170" height="22" rx="3" fill="#3a4a6b"/>
  <text x="185" y="190" font-family="sans-serif" font-size="9" fill="#fff" text-anchor="middle">华为昇腾 910C 大规模出货</text>

  <text x="60" y="215" font-family="sans-serif" font-size="10" fill="#5a5a5a">2026.08</text>
  <rect x="100" y="205" width="170" height="22" rx="3" fill="#3a4a6b"/>
  <text x="185" y="220" font-family="sans-serif" font-size="9" fill="#fff" text-anchor="middle">中科驭数 K2 / 芯启源 信创集采</text>

  <text x="60" y="245" font-family="sans-serif" font-size="10" fill="#5a5a5a">2026.09</text>
  <rect x="100" y="235" width="170" height="22" rx="3" fill="#3a4a6b"/>
  <text x="185" y="250" font-family="sans-serif" font-size="9" fill="#fff" text-anchor="middle">忆芯 STAR 1500 Gen5 主控量产</text>

  <text x="60" y="275" font-family="sans-serif" font-size="10" fill="#5a5a5a">2026.09</text>
  <rect x="100" y="265" width="170" height="22" rx="3" fill="#3a4a6b"/>
  <text x="185" y="280" font-family="sans-serif" font-size="9" fill="#fff" text-anchor="middle">CXL 3.0 spec 正式发布</text>

  <text x="160" y="395" font-family="sans-serif" font-size="10" fill="#5a5a5a" text-anchor="middle" font-style="italic">国产 4 / 国际 0 / 标准 1 / 风险 1</text>

  <!-- Quarter 2: 2026 Q4 -->
  <text x="330" y="90" font-family="sans-serif" font-size="13" fill="#3a4a6b" font-weight="700">2026 Q4 (Oct-Dec) — 7 里程碑</text>
  <rect x="310" y="100" width="240" height="280" rx="6" fill="#f9f8f6" stroke="#ddd"/>

  <text x="330" y="125" font-family="sans-serif" font-size="10" fill="#5a5a5a">2026.10</text>
  <rect x="370" y="115" width="170" height="22" rx="3" fill="#3a4a6b"/>
  <text x="455" y="130" font-family="sans-serif" font-size="9" fill="#fff" text-anchor="middle">长江存储 X4-9060 (TLC) 200层</text>

  <text x="330" y="155" font-family="sans-serif" font-size="10" fill="#5a5a5a">2026.10</text>
  <rect x="370" y="145" width="170" height="22" rx="3" fill="#555"/>
  <text x="455" y="160" font-family="sans-serif" font-size="9" fill="#fff" text-anchor="middle">OCP Cloud SSD v3 互通测试</text>

  <text x="330" y="185" font-family="sans-serif" font-size="10" fill="#5a5a5a">2026.11</text>
  <rect x="370" y="175" width="170" height="22" rx="3" fill="#555"/>
  <text x="455" y="190" font-family="sans-serif" font-size="9" fill="#fff" text-anchor="middle">AMD MI400 首批样品送测</text>

  <text x="330" y="215" font-family="sans-serif" font-size="10" fill="#5a5a5a">2026.11</text>
  <rect x="370" y="205" width="170" height="22" rx="3" fill="#3a4a6b"/>
  <text x="455" y="220" font-family="sans-serif" font-size="9" fill="#fff" text-anchor="middle">浪潮 PSOAR 浸没式液冷规模化</text>

  <text x="330" y="245" font-family="sans-serif" font-size="10" fill="#5a5a5a">2026.12</text>
  <rect x="370" y="235" width="170" height="22" rx="3" fill="#3a4a6b"/>
  <text x="455" y="250" font-family="sans-serif" font-size="9" fill="#fff" text-anchor="middle">长江存储 PLC 试片 (300 层)</text>

  <text x="330" y="275" font-family="sans-serif" font-size="10" fill="#5a5a5a">2026.12</text>
  <rect x="370" y="265" width="170" height="22" rx="3" fill="#555"/>
  <text x="455" y="280" font-family="sans-serif" font-size="9" fill="#fff" text-anchor="middle">Pliops IPO 计划 (估值 ~$1B)</text>

  <text x="330" y="305" font-family="sans-serif" font-size="10" fill="#5a5a5a">2026.12</text>
  <rect x="370" y="295" width="170" height="22" rx="3" fill="#3a4a6b"/>
  <text x="455" y="310" font-family="sans-serif" font-size="9" fill="#fff" text-anchor="middle">信创目录 2025 扩容 (含 CXL)</text>

  <text x="430" y="395" font-family="sans-serif" font-size="10" fill="#5a5a5a" text-anchor="middle" font-style="italic">国产 5 / 国际 1 / 标准 1 / 风险 1</text>

  <!-- Quarter 3: 2027 Q1 -->
  <text x="600" y="90" font-family="sans-serif" font-size="13" fill="#3a4a6b" font-weight="700">2027 Q1 (Jan-Mar) — 7 里程碑</text>
  <rect x="580" y="100" width="240" height="280" rx="6" fill="#f9f8f6" stroke="#ddd"/>

  <text x="600" y="125" font-family="sans-serif" font-size="10" fill="#5a5a5a">2027.01</text>
  <rect x="640" y="115" width="170" height="22" rx="3" fill="#555"/>
  <text x="725" y="130" font-family="sans-serif" font-size="9" fill="#fff" text-anchor="middle">AMD MI400 上市 (256GB HBM3E)</text>

  <text x="600" y="155" font-family="sans-serif" font-size="10" fill="#5a5a5a">2027.01</text>
  <rect x="640" y="145" width="170" height="22" rx="3" fill="#555"/>
  <text x="725" y="160" font-family="sans-serif" font-size="9" fill="#fff" text-anchor="middle">Seagate HAMR 50TB HDD 量产</text>

  <text x="600" y="185" font-family="sans-serif" font-size="10" fill="#5a5a5a">2027.02</text>
  <rect x="640" y="175" width="170" height="22" rx="3" fill="#3a4a6b"/>
  <text x="725" y="190" font-family="sans-serif" font-size="9" fill="#fff" text-anchor="middle">国产 200 层 3D NAND 量产</text>

  <text x="600" y="215" font-family="sans-serif" font-size="10" fill="#5a5a5a">2027.02</text>
  <rect x="640" y="205" width="170" height="22" rx="3" fill="#3a4a6b"/>
  <text x="725" y="220" font-family="sans-serif" font-size="9" fill="#fff" text-anchor="middle">Memverge DaP 5.0 + Big Memory Cloud</text>

  <text x="600" y="245" font-family="sans-serif" font-size="10" fill="#5a5a5a">2027.03</text>
  <rect x="640" y="235" width="170" height="22" rx="3" fill="#3a4a6b"/>
  <text x="725" y="250" font-family="sans-serif" font-size="9" fill="#fff" text-anchor="middle">寒武纪 590 量产 (256GB HBM2e)</text>

  <text x="600" y="275" font-family="sans-serif" font-size="10" fill="#5a5a5a">2027.03</text>
  <rect x="640" y="265" width="170" height="22" rx="3" fill="#3a4a6b"/>
  <text x="725" y="280" font-family="sans-serif" font-size="9" fill="#fff" text-anchor="middle">忆芯 STAR 2000 路线图 (12nm)</text>

  <text x="600" y="305" font-family="sans-serif" font-size="10" fill="#5a5a5a">2027.03</text>
  <rect x="640" y="295" width="170" height="22" rx="3" fill="#aaa"/>
  <text x="725" y="310" font-family="sans-serif" font-size="9" fill="#fff" text-anchor="middle">⚠ 美国新政府 AI 政策明朗</text>

  <text x="700" y="395" font-family="sans-serif" font-size="10" fill="#5a5a5a" text-anchor="middle" font-style="italic">国产 3 / 国际 3 / 标准 0 / 风险 1</text>

  <!-- Bottom summary -->
  <rect x="40" y="430" width="800" height="80" rx="4" fill="#eef0f5" stroke="#3a4a6b" stroke-width="1"/>
  <text x="440" y="455" font-family="sans-serif" font-size="12" fill="#1a1a1a" text-anchor="middle" font-weight="700">21 个里程碑 — 国产 12 (57%) / 国际 4 / 标准 2 / 风险 3</text>

  <text x="160" y="478" font-family="sans-serif" font-size="10" fill="#1a1a1a" text-anchor="middle">深蓝 = 国产里程碑</text>
  <text x="160" y="494" font-family="sans-serif" font-size="9" fill="#5a5a5a" text-anchor="middle">长江存储 / 华为 / 忆芯 / 浪潮</text>

  <text x="440" y="478" font-family="sans-serif" font-size="10" fill="#1a1a1a" text-anchor="middle">灰色 = 国际里程碑</text>
  <text x="440" y="494" font-family="sans-serif" font-size="9" fill="#5a5a5a" text-anchor="middle">AMD MI400 / Seagate HAMR / OCP / Pliops IPO</text>

  <text x="720" y="478" font-family="sans-serif" font-size="10" fill="#1a1a1a" text-anchor="middle">浅灰 = 风险事件</text>
  <text x="720" y="494" font-family="sans-serif" font-size="9" fill="#5a5a5a" text-anchor="middle">BIS 升级 / 美国新政府政策</text>

</svg>