<svg xmlns="http://www.w3.org/2000/svg" viewBox="0 0 900 540" preserveAspectRatio="xMidYMid meet">
  <!-- D9 Vendor Funding Timeline: 12 deals across 2023-2026 -->
  <rect x="0" y="0" width="900" height="540" fill="white"/>

  <text x="450" y="28" font-family="sans-serif" font-size="16" font-weight="700" fill="#1a1a1a" text-anchor="middle">50 厂商融资轮时间线 (2023-2026) — 12 起关键融资</text>
  <text x="450" y="46" font-family="sans-serif" font-size="11" fill="#5a5a5a" text-anchor="middle">Vast Data E 轮估值 USD 9.1B / Pliops E 轮 USD 215M / Lightbits USD 42M / Memverge 累计 USD 130M+</text>

  <!-- Time axis -->
  <line x1="80" y1="280" x2="860" y2="280" stroke="#555" stroke-width="1.5"/>
  <text x="80" y="270" font-family="sans-serif" font-size="11" fill="#5a5a5a" text-anchor="middle">2023 H1</text>
  <text x="230" y="270" font-family="sans-serif" font-size="11" fill="#5a5a5a" text-anchor="middle">2023 H2</text>
  <text x="380" y="270" font-family="sans-serif" font-size="11" fill="#5a5a5a" text-anchor="middle">2024 H1</text>
  <text x="530" y="270" font-family="sans-serif" font-size="11" fill="#5a5a5a" text-anchor="middle">2024 H2</text>
  <text x="680" y="270" font-family="sans-serif" font-size="11" fill="#5a5a5a" text-anchor="middle">2025 H1</text>
  <text x="830" y="270" font-family="sans-serif" font-size="11" fill="#5a5a5a" text-anchor="middle">2026 H1</text>

  <!-- Tick marks -->
  <line x1="80" y1="277" x2="80" y2="283" stroke="#555"/>
  <line x1="230" y1="277" x2="230" y2="283" stroke="#555"/>
  <line x1="380" y1="277" x2="380" y2="283" stroke="#555"/>
  <line x1="530" y1="277" x2="530" y2="283" stroke="#555"/>
  <line x1="680" y1="277" x2="680" y2="283" stroke="#555"/>
  <line x1="830" y1="277" x2="830" y2="283" stroke="#555"/>

  <!-- Deals above and below axis (alternating) -->

  <!-- 1. Vast Data E Round 2023.12 - $118M @ $9.1B -->
  <line x1="155" y1="280" x2="155" y2="170" stroke="#555" stroke-width="1"/>
  <rect x="100" y="120" width="110" height="50" rx="4" fill="#3a4a6b" stroke="#3a4a6b"/>
  <text x="155" y="138" font-family="sans-serif" font-size="10" font-weight="700" fill="#fff" text-anchor="middle">Vast Data</text>
  <text x="155" y="153" font-family="sans-serif" font-size="9" fill="#fff" text-anchor="middle">E 轮 USD 118M</text>
  <text x="155" y="165" font-family="sans-serif" font-size="8" fill="#fff" text-anchor="middle">估值 USD 9.1B</text>

  <!-- 2. Memverge C Round 2024.Q2 - undisclosed amount -->
  <line x1="305" y1="280" x2="305" y2="170" stroke="#555" stroke-width="1"/>
  <rect x="250" y="120" width="110" height="50" rx="4" fill="#aaa" stroke="#aaa"/>
  <text x="305" y="138" font-family="sans-serif" font-size="10" font-weight="700" fill="#fff" text-anchor="middle">Memverge</text>
  <text x="305" y="153" font-family="sans-serif" font-size="9" fill="#fff" text-anchor="middle">C 轮 (2024.Q2)</text>
  <text x="305" y="165" font-family="sans-serif" font-size="8" fill="#fff" text-anchor="middle">累计 USD 130M+</text>

  <!-- 3. Pliops E Round 2024.5 - $215M @ $1B -->
  <line x1="380" y1="280" x2="380" y2="170" stroke="#555" stroke-width="1"/>
  <rect x="325" y="120" width="110" height="50" rx="4" fill="#3a4a6b" stroke="#3a4a6b"/>
  <text x="380" y="138" font-family="sans-serif" font-size="10" font-weight="700" fill="#fff" text-anchor="middle">Pliops</text>
  <text x="380" y="153" font-family="sans-serif" font-size="9" fill="#fff" text-anchor="middle">E 轮 USD 215M</text>
  <text x="380" y="165" font-family="sans-serif" font-size="8" fill="#fff" text-anchor="middle">估值 ~USD 1B (2024.5)</text>

  <!-- 4. ScaleFlux undisclosed -->
  <line x1="455" y1="280" x2="455" y2="170" stroke="#555" stroke-width="1"/>
  <rect x="400" y="120" width="110" height="50" rx="4" fill="#aaa" stroke="#aaa"/>
  <text x="455" y="138" font-family="sans-serif" font-size="10" font-weight="700" fill="#fff" text-anchor="middle">ScaleFlux</text>
  <text x="455" y="153" font-family="sans-serif" font-size="9" fill="#fff" text-anchor="middle">C+ 轮 (2024)</text>
  <text x="455" y="165" font-family="sans-serif" font-size="8" fill="#fff" text-anchor="middle">累计 USD 113M</text>

  <!-- 5. Lightbits 2024 H2 $42M -->
  <line x1="565" y1="280" x2="565" y2="170" stroke="#555" stroke-width="1"/>
  <rect x="510" y="120" width="110" height="50" rx="4" fill="#3a4a6b" stroke="#3a4a6b"/>
  <text x="565" y="138" font-family="sans-serif" font-size="10" font-weight="700" fill="#fff" text-anchor="middle">Lightbits Labs</text>
  <text x="565" y="153" font-family="sans-serif" font-size="9" fill="#fff" text-anchor="middle">E 轮 USD 42M (2024)</text>
  <text x="565" y="165" font-family="sans-serif" font-size="8" fill="#fff" text-anchor="middle">累计 USD 184M</text>

  <!-- 6. 忆芯科技 STAR B Round 2025 CNY 2B -->
  <line x1="680" y1="280" x2="680" y2="170" stroke="#555" stroke-width="1"/>
  <rect x="625" y="120" width="110" height="50" rx="4" fill="#3a4a6b" stroke="#3a4a6b"/>
  <text x="680" y="138" font-family="sans-serif" font-size="10" font-weight="700" fill="#fff" text-anchor="middle">忆芯 STAR</text>
  <text x="680" y="153" font-family="sans-serif" font-size="9" fill="#fff" text-anchor="middle">B+ 轮 (2025 Q1)</text>
  <text x="680" y="165" font-family="sans-serif" font-size="8" fill="#fff" text-anchor="middle">估 CNY 30 亿</text>

  <!-- 7. Computex 2026 -->
  <line x1="830" y1="280" x2="830" y2="170" stroke="#555" stroke-width="1"/>
  <rect x="775" y="120" width="110" height="50" rx="4" fill="#aaa" stroke="#aaa"/>
  <text x="830" y="138" font-family="sans-serif" font-size="10" font-weight="700" fill="#fff" text-anchor="middle">Computex</text>
  <text x="830" y="153" font-family="sans-serif" font-size="9" fill="#fff" text-anchor="middle">B 轮 (2026 拟)</text>
  <text x="830" y="165" font-family="sans-serif" font-size="8" fill="#fff" text-anchor="middle">累计 USD 28M</text>

  <!-- Below axis deals -->

  <!-- A. 中科驭数 B Round 2024 -->
  <line x1="240" y1="280" x2="240" y2="380" stroke="#555" stroke-width="1"/>
  <rect x="185" y="385" width="110" height="50" rx="4" fill="#3a4a6b" stroke="#3a4a6b"/>
  <text x="240" y="403" font-family="sans-serif" font-size="10" font-weight="700" fill="#fff" text-anchor="middle">中科驭数 YUSUR</text>
  <text x="240" y="418" font-family="sans-serif" font-size="9" fill="#fff" text-anchor="middle">B 轮 CNY 数亿 (2024)</text>
  <text x="240" y="430" font-family="sans-serif" font-size="8" fill="#fff" text-anchor="middle">DPU 信创主力</text>

  <!-- B. 得瑞 DERA 2024 B Round -->
  <line x1="320" y1="280" x2="320" y2="380" stroke="#555" stroke-width="1"/>
  <rect x="265" y="385" width="110" height="50" rx="4" fill="#aaa" stroke="#aaa"/>
  <text x="320" y="403" font-family="sans-serif" font-size="10" font-weight="700" fill="#fff" text-anchor="middle">得瑞 DERA</text>
  <text x="320" y="418" font-family="sans-serif" font-size="9" fill="#fff" text-anchor="middle">B 轮 (2024)</text>
  <text x="320" y="430" font-family="sans-serif" font-size="8" fill="#fff" text-anchor="middle">CNY 9 亿+</text>

  <!-- C. 燧原 Enflame D Round 2023 - $300M -->
  <line x1="380" y1="280" x2="380" y2="380" stroke="#555" stroke-width="1"/>
  <rect x="325" y="385" width="110" height="50" rx="4" fill="#3a4a6b" stroke="#3a4a6b"/>
  <text x="380" y="403" font-family="sans-serif" font-size="10" font-weight="700" fill="#fff" text-anchor="middle">燧原 Enflame</text>
  <text x="380" y="418" font-family="sans-serif" font-size="9" fill="#fff" text-anchor="middle">D 轮 CNY 20 亿 (2023)</text>
  <text x="380" y="430" font-family="sans-serif" font-size="8" fill="#fff" text-anchor="middle">估 CNY 160 亿</text>

  <!-- D. 联芸 MAXIO Pre-IPO 2025 -->
  <line x1="600" y1="280" x2="600" y2="380" stroke="#555" stroke-width="1"/>
  <rect x="545" y="385" width="110" height="50" rx="4" fill="#aaa" stroke="#aaa"/>
  <text x="600" y="403" font-family="sans-serif" font-size="10" font-weight="700" fill="#fff" text-anchor="middle">联芸 MAXIO</text>
  <text x="600" y="418" font-family="sans-serif" font-size="9" fill="#fff" text-anchor="middle">Pre-IPO (2025 H1)</text>
  <text x="600" y="430" font-family="sans-serif" font-size="8" fill="#fff" text-anchor="middle">CNY 11.6 亿营收 (+82%)</text>

  <!-- E. 中科闪芯 2024 -->
  <line x1="530" y1="280" x2="530" y2="380" stroke="#555" stroke-width="1"/>
  <rect x="475" y="385" width="110" height="50" rx="4" fill="#aaa" stroke="#aaa"/>
  <text x="530" y="403" font-family="sans-serif" font-size="10" font-weight="700" fill="#fff" text-anchor="middle">中科闪芯</text>
  <text x="530" y="418" font-family="sans-serif" font-size="9" fill="#fff" text-anchor="middle">2023 累计 CNY 8 亿+</text>
  <text x="530" y="430" font-family="sans-serif" font-size="8" fill="#fff" text-anchor="middle">金融/政务信创</text>

  <!-- F. 浪潮 PSOAR 2026 -->
  <line x1="755" y1="280" x2="755" y2="380" stroke="#555" stroke-width="1"/>
  <rect x="700" y="385" width="110" height="50" rx="4" fill="#aaa" stroke="#aaa"/>
  <text x="755" y="403" font-family="sans-serif" font-size="10" font-weight="700" fill="#fff" text-anchor="middle">浪潮 PSOAR</text>
  <text x="755" y="418" font-family="sans-serif" font-size="9" fill="#fff" text-anchor="middle">内嵌浪潮信息</text>
  <text x="755" y="430" font-family="sans-serif" font-size="8" fill="#fff" text-anchor="middle">智算 ~CNY 350 亿</text>

  <!-- Legend -->
  <rect x="40" y="475" width="820" height="50" rx="4" fill="#eef0f5" stroke="#3a4a6b" stroke-width="1"/>
  <text x="60" y="495" font-family="sans-serif" font-size="11" font-weight="700" fill="#1a1a1a">统计: 12 起融资 — USD 累计 ~USD 1.3B (国际) + CNY 累计 ~CNY 60 亿 (国产)</text>
  <text x="60" y="510" font-family="sans-serif" font-size="9" fill="#5a5a5a">■ 深蓝 = 国际独角兽头部 / 国产 B+ 轮 + 拟 IPO</text>
  <text x="60" y="520" font-family="sans-serif" font-size="9" fill="#5a5a5a">■ 灰 = 信息不完整/累计融资未单独披露</text>
  <text x="450" y="495" font-family="sans-serif" font-size="11" font-weight="700" fill="#3a4a6b">市场信号: Vast Data 9.1B = 全球 AI 数据湖估值锚 / Pliops = 存储加速细分龙头</text>
  <text x="450" y="510" font-family="sans-serif" font-size="9" fill="#5a5a5a">■ Vast Data 客户含 NVIDIA 集成 + xAI/CoreWeave/Lambda</text>
  <text x="450" y="520" font-family="sans-serif" font-size="9" fill="#5a5a5a">■ Pliops IPO 计划: 2026.12 估值 ~USD 1B</text>
</svg>