<svg xmlns="http://www.w3.org/2000/svg" viewBox="0 0 920 460" font-family="-apple-system,BlinkMacSystemFont,'PingFang SC','Microsoft YaHei',sans-serif">
<rect width="920" height="460" fill="#0a0e1a"/>
<text x="460" y="32" text-anchor="middle" fill="#e8ecf5" font-size="20" font-weight="700">S08 · NVL72 → NVL576 → NVL576 Kyber 拓扑演进</text>
<text x="460" y="54" text-anchor="middle" fill="#aab2cf" font-size="12">GB200 (72 GPU) → Vera Rubin (72 GPU) → Kyber (576 GPU, 2027 H2)</text>
<g transform="translate(60,90)">
<rect x="0" y="0" width="240" height="280" fill="#141a2e" stroke="#7eb6ff" stroke-width="2" rx="8"/>
<text x="120" y="22" text-anchor="middle" fill="#7eb6ff" font-size="13" font-weight="700">GB200 NVL72</text>
<text x="120" y="40" text-anchor="middle" fill="#aab2cf" font-size="10">2024-03 GTC · 已部署</text>
<g transform="translate(20,55)">
<rect x="0" y="0" width="200" height="14" fill="#1c2440" stroke="#3d4a73"/>
<text x="100" y="11" text-anchor="middle" fill="#e8ecf5" font-size="9">36 Grace CPU</text>
<g transform="translate(0,20)">
<rect x="0" y="0" width="18" height="18" fill="#7eb6ff"/>
<rect x="22" y="0" width="18" height="18" fill="#7eb6ff"/>
<rect x="44" y="0" width="18" height="18" fill="#7eb6ff"/>
<rect x="66" y="0" width="18" height="18" fill="#7eb6ff"/>
<rect x="88" y="0" width="18" height="18" fill="#7eb6ff"/>
<rect x="110" y="0" width="18" height="18" fill="#7eb6ff"/>
<rect x="132" y="0" width="18" height="18" fill="#7eb6ff"/>
<rect x="154" y="0" width="18" height="18" fill="#7eb6ff"/>
<text x="180" y="13" fill="#aab2cf" font-size="9">×9</text>
</g>
<g transform="translate(0,55)">
<rect x="0" y="0" width="200" height="14" fill="#1c2440" stroke="#3d4a73"/>
<text x="100" y="11" text-anchor="middle" fill="#e8ecf5" font-size="9">9 NVSwitch tray (5,000 铜缆)</text>
</g>
<text x="0" y="100" fill="#aab2cf" font-size="10">72× B200 GPU</text>
<text x="0" y="118" fill="#aab2cf" font-size="10">130 TB/s NVLink 5</text>
<text x="0" y="136" fill="#aab2cf" font-size="10">13.4 TB HBM3e</text>
<text x="0" y="154" fill="#aab2cf" font-size="10">1.44 EFLOPS FP4 (稀疏)</text>
<text x="0" y="172" fill="#f59e0b" font-size="10">120 kW 液冷</text>
<text x="0" y="195" fill="#7eb6ff" font-size="11" font-weight="700">xAI Colossus (100k H100) ✓</text>
<text x="0" y="213" fill="#7eb6ff" font-size="11" font-weight="700">MS Fairwater ✓</text>
</g>
<g transform="translate(340,90)">
<rect x="0" y="0" width="240" height="280" fill="#141a2e" stroke="#a78bfa" stroke-width="2" rx="8"/>
<text x="120" y="22" text-anchor="middle" fill="#a78bfa" font-size="13" font-weight="700">Vera Rubin NVL72</text>
<text x="120" y="40" text-anchor="middle" fill="#aab2cf" font-size="10">2026 H2 · 量产</text>
<g transform="translate(20,55)">
<rect x="0" y="0" width="200" height="14" fill="#1c2440" stroke="#3d4a73"/>
<text x="100" y="11" text-anchor="middle" fill="#e8ecf5" font-size="9">36 Vera CPU (88 核 Arm Olympus)</text>
<g transform="translate(0,20)">
<rect x="0" y="0" width="18" height="18" fill="#a78bfa"/>
<rect x="22" y="0" width="18" height="18" fill="#a78bfa"/>
<rect x="44" y="0" width="18" height="18" fill="#a78bfa"/>
<rect x="66" y="0" width="18" height="18" fill="#a78bfa"/>
<rect x="88" y="0" width="18" height="18" fill="#a78bfa"/>
<rect x="110" y="0" width="18" height="18" fill="#a78bfa"/>
<rect x="132" y="0" width="18" height="18" fill="#a78bfa"/>
<rect x="154" y="0" width="18" height="18" fill="#a78bfa"/>
</g>
<g transform="translate(0,55)">
<rect x="0" y="0" width="200" height="14" fill="#1c2440" stroke="#3d4a73"/>
<text x="100" y="11" text-anchor="middle" fill="#e8ecf5" font-size="9">NVLink 6 switch tray</text>
</g>
<text x="0" y="100" fill="#aab2cf" font-size="10">72× Rubin GPU</text>
<text x="0" y="118" fill="#aab2cf" font-size="10">260 TB/s NVLink 6</text>
<text x="0" y="136" fill="#aab2cf" font-size="10">20.7 TB HBM4</text>
<text x="0" y="154" fill="#aab2cf" font-size="10">3.6 EFLOPS FP4 推理</text>
<text x="0" y="172" fill="#f59e0b" font-size="10">2.5 EFLOPS FP8 训练</text>
<text x="0" y="195" fill="#a78bfa" font-size="11" font-weight="700">Rubin CPX NVL144 (2026 末)</text>
<text x="0" y="213" fill="#a78bfa" font-size="11" font-weight="700">百万 token 推理</text>
</g>
<g transform="translate(620,90)">
<rect x="0" y="0" width="240" height="280" fill="#141a2e" stroke="#f59e0b" stroke-width="2" rx="8"/>
<text x="120" y="22" text-anchor="middle" fill="#f59e0b" font-size="13" font-weight="700">Rubin Ultra NVL576</text>
<text x="120" y="40" text-anchor="middle" fill="#aab2cf" font-size="10">Kyber · 2027 H2</text>
<g transform="translate(20,55)">
<rect x="0" y="0" width="200" height="60" fill="#1c2440" stroke="#3d4a73"/>
<g transform="translate(8,8)">
<rect x="0" y="0" width="12" height="12" fill="#f59e0b"/>
<rect x="14" y="0" width="12" height="12" fill="#f59e0b"/>
<rect x="28" y="0" width="12" height="12" fill="#f59e0b"/>
<rect x="42" y="0" width="12" height="12" fill="#f59e0b"/>
<rect x="0" y="14" width="12" height="12" fill="#f59e0b"/>
<rect x="14" y="14" width="12" height="12" fill="#f59e0b"/>
<rect x="28" y="14" width="12" height="12" fill="#f59e0b"/>
<rect x="42" y="14" width="12" height="12" fill="#f59e0b"/>
<rect x="0" y="28" width="12" height="12" fill="#f59e0b"/>
<rect x="14" y="28" width="12" height="12" fill="#f59e0b"/>
<rect x="28" y="28" width="12" height="12" fill="#f59e0b"/>
<rect x="42" y="28" width="12" height="12" fill="#f59e0b"/>
</g>
<text x="60" y="30" fill="#e8ecf5" font-size="9">8 rack scale-up</text>
<text x="60" y="42" fill="#aab2cf" font-size="9">8 × NVL72 = 576 GPU</text>
</g>
<text x="0" y="138" fill="#aab2cf" font-size="10">576× Rubin Ultra (4 reticle dies)</text>
<text x="0" y="156" fill="#aab2cf" font-size="10">1.5 PB/s NVLink 7</text>
<text x="0" y="174" fill="#aab2cf" font-size="10">365 TB 快存 (HBM4e)</text>
<text x="0" y="192" fill="#aab2cf" font-size="10">15 EFLOPS FP4 推理</text>
<text x="0" y="210" fill="#aab2cf" font-size="10">5 EFLOPS FP8 训练</text>
<text x="0" y="228" fill="#ef4444" font-size="11" font-weight="700">600 kW 液冷 (cabinet 极限)</text>
<text x="0" y="248" fill="#f59e0b" font-size="10">100 PFLOPS FP4 单包</text>
</g>
<text x="460" y="410" text-anchor="middle" fill="#6e7798" font-size="11">算力密度: NVL72 → NVL576 ≈ 8× (scale-up 域) + 2× 算力/包 = ~16× 总算力/rack</text>
<text x="460" y="430" text-anchor="middle" fill="#6e7798" font-size="11">冷却挑战: 100kW (Blackwell) → 600kW (Rubin Ultra) — 推动液冷 100% 普及</text>
<text x="460" y="450" text-anchor="middle" fill="#aab2cf" font-size="10" font-style="italic">Source: NVIDIA GTC 2025/2026 + nvidianews.nvidia.com/news/rubin-platform-ai-supercomputer</text>
</svg>
